<svg class="main-svg" xmlns="http://www.w3.org/2000/svg" xmlns:xlink="http://www.w3.org/1999/xlink" width="1200" height="600" style="--darkreader-inline-bgcolor:#181a1b; --darkreader-inline-bgimage:none;" data-darkreader-inline-bgcolor="" data-darkreader-inline-bgimage="" viewBox="0 0 1200 600"><rect x="0" y="0" width="1200" height="600" style="fill: rgb(255, 255, 255); fill-opacity: 1;"/><defs id="defs-a68979"><g class="clips"><clipPath id="clipa68979xyplot" class="plotclip"><rect width="964" height="470"/></clipPath><clipPath class="axesclip" id="clipa68979x"><rect x="80" y="0" width="964" height="600"/></clipPath><clipPath class="axesclip" id="clipa68979y"><rect x="0" y="50" width="1200" height="470"/></clipPath><clipPath class="axesclip" id="clipa68979xy"><rect x="80" y="50" width="964" height="470"/></clipPath></g><g class="gradients"/></defs><g class="bglayer"/><g class="layer-below"><g class="imagelayer"/><g class="shapelayer"/></g><g class="cartesianlayer"><g class="subplot xy"><g class="layer-subplot"><g class="shapelayer"/><g class="imagelayer"/></g><g class="gridlayer"><g class="x"><path class="xgrid crisp" transform="translate(237.92,0)" d="M0,50v470" style="stroke: rgb(238, 238, 238); stroke-opacity: 1; stroke-width: 1px; --darkreader-inline-stroke:#dddad6;" data-darkreader-inline-stroke=""/><path class="xgrid crisp" transform="translate(396.64,0)" d="M0,50v470" style="stroke: rgb(238, 238, 238); stroke-opacity: 1; stroke-width: 1px; --darkreader-inline-stroke:#dddad6;" data-darkreader-inline-stroke=""/><path class="xgrid crisp" transform="translate(555.35,0)" d="M0,50v470" style="stroke: rgb(238, 238, 238); stroke-opacity: 1; stroke-width: 1px; --darkreader-inline-stroke:#dddad6;" data-darkreader-inline-stroke=""/><path class="xgrid crisp" transform="translate(714.07,0)" d="M0,50v470" style="stroke: rgb(238, 238, 238); stroke-opacity: 1; stroke-width: 1px; --darkreader-inline-stroke:#dddad6;" data-darkreader-inline-stroke=""/><path class="xgrid crisp" transform="translate(872.78,0)" d="M0,50v470" style="stroke: rgb(238, 238, 238); stroke-opacity: 1; stroke-width: 1px; --darkreader-inline-stroke:#dddad6;" data-darkreader-inline-stroke=""/><path class="xgrid crisp" transform="translate(1031.5,0)" d="M0,50v470" style="stroke: rgb(238, 238, 238); stroke-opacity: 1; stroke-width: 1px; --darkreader-inline-stroke:#dddad6;" data-darkreader-inline-stroke=""/></g><g class="y"><path class="ygrid crisp" transform="translate(0,441.62)" d="M80,0h964" style="stroke: rgb(238, 238, 238); stroke-opacity: 1; stroke-width: 1px; --darkreader-inline-stroke:#dddad6;" data-darkreader-inline-stroke=""/><path class="ygrid crisp" transform="translate(0,330.35)" d="M80,0h964" style="stroke: rgb(238, 238, 238); stroke-opacity: 1; stroke-width: 1px; --darkreader-inline-stroke:#dddad6;" data-darkreader-inline-stroke=""/><path class="ygrid crisp" transform="translate(0,219.09)" d="M80,0h964" style="stroke: rgb(238, 238, 238); stroke-opacity: 1; stroke-width: 1px; --darkreader-inline-stroke:#dddad6;" data-darkreader-inline-stroke=""/><path class="ygrid crisp" transform="translate(0,107.82)" d="M80,0h964" style="stroke: rgb(238, 238, 238); stroke-opacity: 1; stroke-width: 1px; --darkreader-inline-stroke:#dddad6;" data-darkreader-inline-stroke=""/></g></g><g class="zerolinelayer"/><path class="xlines-below"/><path class="ylines-below"/><g class="overlines-below"/><g class="xaxislayer-below"/><g class="yaxislayer-below"/><g class="overaxes-below"/><g class="plot" transform="translate(80, 50)" clip-path="url('#clipa68979xyplot')"><g class="scatterlayer mlayer"><g class="trace scatter tracee7cd890" style="stroke-miterlimit: 2; opacity: 1;"><g class="fills"/><g class="errorbars"/><g class="lines"><path class="js-line" style="vector-effect: non-scaling-stroke; fill: none; stroke: rgb(251, 147, 65); stroke-opacity: 1; stroke-width: 1.5px; opacity: 1; --darkreader-inline-fill:none; --darkreader-inline-stroke:#fb9748;" d="M0,-514.37L4.76,78.74L21.43,172.47L37.3,244.07L42.85,222.8L59.52,278.98L68.25,254.33L74.6,268.3L80.94,251.85L85.71,260.79L96.02,259.22L117.45,252.53L149.99,284L150.78,300.45L164.27,287.8L165.86,278.22L173,290.97L177.76,286.65L184.11,315.44L184.9,306.98L191.25,297.15L211.09,293.31L215.06,294.25L230.14,282.65L275.37,291.41L288.07,313.81L292.83,338.31L308.7,355.97L311.08,337.2L321.4,393.69L326.16,382.39L346,396.97L354.73,398.23L364.25,404.88L365.04,403.56L368.22,414.77L379.33,405.6L381.71,400.35L392.82,422.41L417.42,412.9L437.26,438.32L474.56,408.38L476.94,427.56L488.84,410.06L504.71,408.21L536.46,405.79L543.6,430.33L548.36,422.17L550.74,411.59L554.71,425.68L568.99,434.18L581.69,413.53L582.48,428.49L584.07,434.77L599.15,424.74L603.91,424.14L611.85,435.75L614.23,428.47L641.21,430.89L646.76,428.52L649.94,420.15L653.91,425.06L666.6,424.86L670.57,429.23L671.36,431.48L676.13,424.17L687.24,426.02L710.25,435.95L718.18,434.58L730.88,424.51L733.26,421.17L771.35,424.96L778.5,434.71L784.05,439.52L789.61,424.74L792.78,437.18L799.92,433.38L881.66,429.86L883.25,442.62L888.01,432.79L896.74,437.88L915.78,433.83L919.75,439.44L920.55,429.25L921.34,437.3L924.51,426.45L963.4,433.08L974.51,435.28L976.89,438.93L989.59,436.56L993.55,431.54L994.35,429.24L999.11,423.24L1006.25,434.69L1022.92,439.97L1045.14,436.43L1050.69,439.54L1056.25,428.91L1057.04,423.38L1066.56,442.22L1093.55,430.39L1102.27,443.5L1118.15,420.91L1127.67,441.91L1136.4,436.78L1137.99,436.84L1151.48,430.6L1155.44,445.09L1168.93,441.15L1191.95,443.58L1225.28,441.21L1307.02,433.78L1319.71,446.43L1335.59,435.41L1339.55,440.01L1342.73,442.77L1350.66,436.39L1380.03,441.26L1380.82,447.13L1387.17,434.44L1399.86,444.25L1402.25,435.02L1418.12,438.75L1431.61,438.78L1445.89,443.8L1453.03,439.84L1464.94,442.21L1470.49,437.67L1494.3,429.03L1496.68,439.66L1515.73,439.07L1516.52,445.64L1523.66,432.91L1547.47,448.69L1549.85,442.81L1560.17,435.66L1565.72,452.49L1566.52,435.33L1567.31,444.41L1576.04,438.53L1586.35,438.92" data-darkreader-inline-fill="" data-darkreader-inline-stroke=""/></g><g class="points"/><g class="text"/></g><g class="trace scatter trace3fe86f" style="stroke-miterlimit: 2; opacity: 1;"><g class="fills"/><g class="errorbars"/><g class="lines"/><g class="points"><path class="point" transform="translate(1586.35,438.92)" style="opacity: 1; stroke-width: 0px; fill: rgb(251, 147, 65); fill-opacity: 1; --darkreader-inline-fill:#fb9748;" d="M3,0A3,3 0 1,1 0,-3A3,3 0 0,1 3,0Z" data-darkreader-inline-fill=""/></g><g class="text"/></g></g></g><g class="overplot"/><path class="xlines-above crisp" style="fill: none; --darkreader-inline-fill:none;" d="M0,0" data-darkreader-inline-fill=""/><path class="ylines-above crisp" style="fill: none; --darkreader-inline-fill:none;" d="M0,0" data-darkreader-inline-fill=""/><g class="overlines-above"/><g class="xaxislayer-above"><g class="xtick"><text text-anchor="middle" x="0" y="543" style="font-family: TOBESTRIPPEDOpen SansTOBESTRIPPED, verdana, arial, sans-serif; font-size: 12px; fill: rgb(32, 32, 32); fill-opacity: 1; white-space: pre; --darkreader-inline-fill:#d4d0ca;" transform="translate(237.92,0)" data-darkreader-inline-fill="">200</text></g><g class="xtick"><text text-anchor="middle" x="0" y="543" style="font-family: TOBESTRIPPEDOpen SansTOBESTRIPPED, verdana, arial, sans-serif; font-size: 12px; fill: rgb(32, 32, 32); fill-opacity: 1; white-space: pre; --darkreader-inline-fill:#d4d0ca;" transform="translate(396.64,0)" data-darkreader-inline-fill="">400</text></g><g class="xtick"><text text-anchor="middle" x="0" y="543" style="font-family: TOBESTRIPPEDOpen SansTOBESTRIPPED, verdana, arial, sans-serif; font-size: 12px; fill: rgb(32, 32, 32); fill-opacity: 1; white-space: pre; --darkreader-inline-fill:#d4d0ca;" transform="translate(555.35,0)" data-darkreader-inline-fill="">600</text></g><g class="xtick"><text text-anchor="middle" x="0" y="543" style="font-family: TOBESTRIPPEDOpen SansTOBESTRIPPED, verdana, arial, sans-serif; font-size: 12px; fill: rgb(32, 32, 32); fill-opacity: 1; white-space: pre; --darkreader-inline-fill:#d4d0ca;" transform="translate(714.07,0)" data-darkreader-inline-fill="">800</text></g><g class="xtick"><text text-anchor="middle" x="0" y="543" style="font-family: TOBESTRIPPEDOpen SansTOBESTRIPPED, verdana, arial, sans-serif; font-size: 12px; fill: rgb(32, 32, 32); fill-opacity: 1; white-space: pre; --darkreader-inline-fill:#d4d0ca;" transform="translate(872.78,0)" data-darkreader-inline-fill="">1000</text></g><g class="xtick"><text text-anchor="middle" x="0" y="543" style="font-family: TOBESTRIPPEDOpen SansTOBESTRIPPED, verdana, arial, sans-serif; font-size: 12px; fill: rgb(32, 32, 32); fill-opacity: 1; white-space: pre; --darkreader-inline-fill:#d4d0ca;" transform="translate(1031.5,0)" data-darkreader-inline-fill="">1200</text></g></g><g class="yaxislayer-above"><g class="ytick"><text text-anchor="end" x="69" y="4.199999999999999" style="font-family: TOBESTRIPPEDOpen SansTOBESTRIPPED, verdana, arial, sans-serif; font-size: 12px; fill: rgb(32, 32, 32); fill-opacity: 1; white-space: pre; --darkreader-inline-fill:#d4d0ca;" transform="translate(0,441.62)" data-darkreader-inline-fill="">0.005</text></g><g class="ytick"><text text-anchor="end" x="69" y="4.199999999999999" style="font-family: TOBESTRIPPEDOpen SansTOBESTRIPPED, verdana, arial, sans-serif; font-size: 12px; fill: rgb(32, 32, 32); fill-opacity: 1; white-space: pre; --darkreader-inline-fill:#d4d0ca;" transform="translate(0,330.35)" data-darkreader-inline-fill="">0.01</text></g><g class="ytick"><text text-anchor="end" x="69" y="4.199999999999999" style="font-family: TOBESTRIPPEDOpen SansTOBESTRIPPED, verdana, arial, sans-serif; font-size: 12px; fill: rgb(32, 32, 32); fill-opacity: 1; white-space: pre; --darkreader-inline-fill:#d4d0ca;" transform="translate(0,219.09)" data-darkreader-inline-fill="">0.015</text></g><g class="ytick"><text text-anchor="end" x="69" y="4.199999999999999" style="font-family: TOBESTRIPPEDOpen SansTOBESTRIPPED, verdana, arial, sans-serif; font-size: 12px; fill: rgb(32, 32, 32); fill-opacity: 1; white-space: pre; --darkreader-inline-fill:#d4d0ca;" transform="translate(0,107.82)" data-darkreader-inline-fill="">0.02</text></g></g><g class="overaxes-above"/></g></g><g class="polarlayer"/><g class="ternarylayer"/><g class="geolayer"/><g class="funnelarealayer"/><g class="pielayer"/><g class="treemaplayer"/><g class="sunburstlayer"/><g class="glimages"/><defs id="topdefs-a68979"><g class="clips"/><clipPath id="legenda68979"><rect width="125" height="29" x="0" y="0"/></clipPath></defs><g class="layer-above"><g class="imagelayer"/><g class="shapelayer"/></g><g class="infolayer"><g class="legend" pointer-events="all" transform="translate(1063.28, 50)"><rect class="bg" shape-rendering="crispEdges" style="stroke: rgb(68, 68, 68); stroke-opacity: 1; fill: rgb(255, 255, 255); fill-opacity: 1; stroke-width: 0px; --darkreader-inline-stroke:#bdb7af; --darkreader-inline-fill:#e8e6e3;" width="125" height="29" x="0" y="0" data-darkreader-inline-stroke="" data-darkreader-inline-fill=""/><g class="scrollbox" transform="translate(0, 0)" clip-path="url('#legenda68979')"><g class="groups" transform="translate(0, 0)"><g class="traces" style="opacity: 1;" transform="translate(0, 14.5)"><text class="legendtext" text-anchor="start" style="font-family: TOBESTRIPPEDOpen SansTOBESTRIPPED, verdana, arial, sans-serif; font-size: 12px; fill: rgb(68, 68, 68); fill-opacity: 1; white-space: pre; --darkreader-inline-fill:#bdb7af;" x="40" y="4.680000000000001" data-darkreader-inline-fill="">dae_train_loss</text><g class="layers" style="opacity: 1;"><g class="legendfill"/><g class="legendlines"><path class="js-line" d="M5,0h30" style="fill: none; stroke: rgb(251, 147, 65); stroke-opacity: 1; stroke-width: 1.5px; --darkreader-inline-fill:none; --darkreader-inline-stroke:#fb9748;" data-darkreader-inline-fill="" data-darkreader-inline-stroke=""/></g><g class="legendsymbols"><g class="legendpoints"/></g></g><rect class="legendtoggle" style="fill: rgb(0, 0, 0); fill-opacity: 0; --darkreader-inline-fill:#e8e6e3;" x="0" y="-9.5" width="120" height="19" data-darkreader-inline-fill=""/></g></g></g><rect class="scrollbar" rx="20" ry="3" width="0" height="0" style="fill: rgb(128, 139, 164); fill-opacity: 1; --darkreader-inline-fill:#a39b8f;" x="0" y="0" data-darkreader-inline-fill=""/></g><g class="g-gtitle"/><g class="g-xtitle"/><g class="g-ytitle"/></g></svg>